<svg width="20" height="20" viewBox="0 0 20 20" fill="none" xmlns="http://www.w3.org/2000/svg">
<path d="M3.49994 17.925C5.76244 16.3625 7.27494 13.975 8.38744 11.05C9.51244 8.13751 10.7124 5.63751 10.1874 2.76251C10.1124 2.31251 9.47494 1.85001 9.14994 1.88751C7.87494 1.96251 7.96244 3.40001 8.08744 4.26251C8.38744 6.40001 10.0374 8.88751 11.6374 11.2125C13.2249 13.55 14.5374 13.9125 16.3624 14.0375C16.9874 14.075 17.9249 13.8625 18.0749 13.3125C19.0374 9.81251 6.79994 12.6375 2.72494 15.9125C2.22494 16.325 1.64994 17.1625 1.97494 17.7375C2.22494 18.1875 3.06244 18.2375 3.51244 17.925H3.49994Z" stroke="#ED8796" stroke-linecap="round" stroke-linejoin="round"/>
</svg>
