<svg width="20" height="20" viewBox="0 0 20 20" fill="none" xmlns="http://www.w3.org/2000/svg">
<path d="M18.0038 1.875H6.06569C5.96781 1.87476 5.87085 1.89383 5.78035 1.93114C5.68986 1.96844 5.60762 2.02325 5.53835 2.0924C5.46908 2.16155 5.41414 2.2437 5.37668 2.33413C5.33922 2.42456 5.31999 2.5215 5.32007 2.61938V5.9375L12.2382 7.96875L18.7501 5.9375V2.61938C18.7502 2.52145 18.7309 2.42446 18.6934 2.33399C18.6559 2.24352 18.6009 2.16134 18.5316 2.09218C18.4622 2.02302 18.3799 1.96823 18.2894 1.93096C18.1988 1.89369 18.1018 1.87467 18.0038 1.875Z" fill="#41A5EE"/>
<path d="M18.7501 5.9375H5.32007V10L12.2382 11.2188L18.7501 10V5.9375Z" fill="#2B7CD3"/>
<path d="M5.32007 10V14.0625L11.8313 14.875L18.7501 14.0625V10H5.32007Z" fill="#185ABD"/>
<path d="M6.06569 18.125H18.0032C18.1012 18.1254 18.1983 18.1065 18.2889 18.0692C18.3796 18.032 18.4619 17.9772 18.5313 17.908C18.6007 17.8389 18.6558 17.7567 18.6933 17.6662C18.7309 17.5756 18.7502 17.4786 18.7501 17.3806V14.0625H5.32007V17.3806C5.31999 17.4785 5.33922 17.5754 5.37668 17.6659C5.41414 17.7563 5.46908 17.8384 5.53835 17.9076C5.60762 17.9768 5.68986 18.0316 5.78035 18.0689C5.87085 18.1062 5.96781 18.1252 6.06569 18.125Z" fill="#103F91"/>
<path opacity="0.1" d="M10.2713 5.125H5.32007V15.2812H10.2713C10.4686 15.2803 10.6576 15.2016 10.7973 15.0623C10.9369 14.9229 11.0161 14.7342 11.0176 14.5369V5.86937C11.0161 5.67209 10.9369 5.48333 10.7973 5.34399C10.6576 5.20466 10.4686 5.12598 10.2713 5.125Z" fill="black"/>
<path opacity="0.2" d="M9.86444 5.53125H5.32007V15.6875H9.86444C10.0617 15.6865 10.2507 15.6078 10.3904 15.4685C10.5301 15.3292 10.6092 15.1404 10.6107 14.9431V6.27562C10.6092 6.07834 10.5301 5.88958 10.3904 5.75024C10.2507 5.61091 10.0617 5.53223 9.86444 5.53125Z" fill="black"/>
<path opacity="0.2" d="M9.86444 5.53125H5.32007V14.875H9.86444C10.0617 14.874 10.2507 14.7953 10.3904 14.656C10.5301 14.5167 10.6092 14.3279 10.6107 14.1306V6.27562C10.6092 6.07834 10.5301 5.88958 10.3904 5.75024C10.2507 5.61091 10.0617 5.53223 9.86444 5.53125Z" fill="black"/>
<path opacity="0.2" d="M9.45757 5.53125H5.32007V14.875H9.45757C9.65486 14.874 9.84382 14.7953 9.9835 14.656C10.1232 14.5167 10.2023 14.3279 10.2038 14.1306V6.27562C10.2023 6.07834 10.1232 5.88958 9.9835 5.75024C9.84382 5.61091 9.65486 5.53223 9.45757 5.53125Z" fill="black"/>
<path d="M1.99625 5.53125H9.4575C9.65514 5.53109 9.84477 5.6094 9.9847 5.74898C10.1246 5.88856 10.2034 6.07799 10.2038 6.27563V13.7244C10.2034 13.922 10.1246 14.1114 9.9847 14.251C9.84477 14.3906 9.65514 14.4689 9.4575 14.4688H1.99625C1.89832 14.4691 1.80128 14.4501 1.71072 14.4128C1.62015 14.3755 1.53784 14.3207 1.4685 14.2516C1.39916 14.1824 1.34417 14.1002 1.30667 14.0098C1.26918 13.9193 1.24992 13.8223 1.25 13.7244V6.27563C1.24992 6.1777 1.26918 6.08071 1.30667 5.99024C1.34417 5.89977 1.39916 5.81759 1.4685 5.74843C1.53784 5.67927 1.62015 5.62448 1.71072 5.58721C1.80128 5.54994 1.89832 5.53092 1.99625 5.53125Z" fill="url(#paint0_linear_0_1758)"/>
<path d="M4.3124 11.2425C4.32699 11.3575 4.33657 11.4577 4.34115 11.5431H4.35865C4.3649 11.4618 4.37844 11.3639 4.39928 11.2493C4.43053 11.0775 4.43803 11.0381 4.4549 10.9587L5.23928 7.57933H6.25428L7.06678 10.9081C7.1137 11.1141 7.14751 11.3228 7.16803 11.5331H7.18178C7.19737 11.3284 7.22555 11.1249 7.26615 10.9237L7.91553 7.57495H8.83865L7.69865 12.4175H6.61928L5.84615 9.2137C5.82365 9.1212 5.79824 9.00078 5.7699 8.85245C5.74157 8.70412 5.72407 8.59578 5.7174 8.52745H5.70428C5.69553 8.6062 5.67803 8.72308 5.65178 8.87808C5.62553 9.03308 5.60469 9.14808 5.58928 9.22308L4.8624 12.4193H3.7649L2.61865 7.57933H3.55615L4.26303 10.9656C4.28363 11.0571 4.30011 11.1495 4.3124 11.2425Z" fill="white"/>
<defs>
<linearGradient id="paint0_linear_0_1758" x1="2.80875" y1="4.94625" x2="8.645" y2="15.0538" gradientUnits="userSpaceOnUse">
<stop stop-color="#2368C4"/>
<stop offset="0.5" stop-color="#1A5DBE"/>
<stop offset="1" stop-color="#1146AC"/>
</linearGradient>
</defs>
</svg>
