<svg width="18" height="18" viewBox="0 0 18 18" fill="none" xmlns="http://www.w3.org/2000/svg">
<path d="M14.8333 4H13.1666V3.16667C13.1666 1.75 12.0833 0.666667 10.6666 0.666667H7.33329C5.91663 0.666667 4.83329 1.75 4.83329 3.16667V4H3.16663C1.74996 4 0.666626 5.08333 0.666626 6.5V7.33333H17.3333V6.5C17.3333 5.08333 16.25 4 14.8333 4ZM11.5 4H6.49996V3.16667C6.49996 2.66667 6.83329 2.33333 7.33329 2.33333H10.6666C11.1666 2.33333 11.5 2.66667 11.5 3.16667V4ZM0.666626 14.8333C0.666626 16.25 1.74996 17.3333 3.16663 17.3333H14.8333C16.25 17.3333 17.3333 16.25 17.3333 14.8333V9H0.666626V14.8333ZM7.33329 12.3333H8.16663V11.5C8.16663 11 8.49996 10.6667 8.99996 10.6667C9.49996 10.6667 9.83329 11 9.83329 11.5V12.3333H10.6666C11.1666 12.3333 11.5 12.6667 11.5 13.1667C11.5 13.6667 11.1666 14 10.6666 14H9.83329V14.8333C9.83329 15.3333 9.49996 15.6667 8.99996 15.6667C8.49996 15.6667 8.16663 15.3333 8.16663 14.8333V14H7.33329C6.83329 14 6.49996 13.6667 6.49996 13.1667C6.49996 12.6667 6.83329 12.3333 7.33329 12.3333Z" fill="#1E1E1E"/>
</svg>
