<svg width="16" height="20" viewBox="0 0 16 20" fill="none" xmlns="http://www.w3.org/2000/svg">
<path d="M14.6667 17.5H10.3333C10.4167 17.3333 10.4167 17.1667 10.4167 17C12.9167 16 14.5833 13.5833 14.5833 10.8333C14.5833 9.16666 13.9167 7.58333 12.8333 6.33333L13.3333 5.83333C13.4167 5.74999 13.5 5.66666 13.5 5.49999L14.0833 3.74999C14.1667 3.41666 14.0833 3.08333 13.9167 2.91666L12.1667 1.16666C11.9167 0.916661 11.5833 0.833328 11.3333 0.999994L9.66667 1.49999C9.58333 1.49999 9.41667 1.58333 9.33333 1.66666L4 6.99999C3.66667 7.33333 3.66667 7.83333 4 8.16666L2.83333 9.33333C2.5 9.66666 2.5 10.1667 2.83333 10.5L4.58333 12.25C4.91667 12.5833 5.41667 12.5833 5.75 12.25L6.91667 11.0833C7.25 11.4167 7.75 11.4167 8.08333 11.0833L11.75 7.49999C12.5833 8.41666 13 9.58333 13 10.8333C13 12.75 11.8333 14.5 10.0833 15.3333C9.33333 14.1667 7.83333 13.75 6.66667 14.5C6.33333 14.75 6 15 5.83333 15.4167C5.5 15.25 5.16667 15.1667 4.91667 14.9167C5.25 14.8333 5.5 14.5 5.5 14.1667C5.5 13.6667 5.16667 13.3333 4.66667 13.3333H1.33333C0.833333 13.3333 0.5 13.6667 0.5 14.1667C0.5 14.6667 0.833333 15 1.33333 15H2.41667C3.25 15.9167 4.33333 16.6667 5.5 17.0833C5.5 17.25 5.58333 17.4167 5.58333 17.5H1.33333C0.833333 17.5 0.5 17.8333 0.5 18.3333C0.5 18.8333 0.833333 19.1667 1.33333 19.1667H14.6667C15.1667 19.1667 15.5 18.8333 15.5 18.3333C15.5 17.9167 15.1667 17.5 14.6667 17.5ZM5.16667 10.5L4.58333 9.91666L5.16667 9.33333L5.75 9.91666L5.16667 10.5ZM8 17.5C7.5 17.5 7.16667 17.1667 7.16667 16.6667C7.16667 16.1667 7.5 15.8333 8 15.8333C8.5 15.8333 8.83333 16.1667 8.83333 16.6667C8.83333 17.1667 8.5 17.5 8 17.5Z" fill="#1E1E1E"/>
</svg>
