<svg width="18" height="16" viewBox="0 0 18 16" fill="none" xmlns="http://www.w3.org/2000/svg">
<path d="M15.8333 2.16667C14 0.333333 11.0833 0.166667 9.00001 1.66667C6.66668 0 3.41667 0.416667 1.66667 2.75C0.166675 4.83333 0.333341 7.75 2.16667 9.58333L7.16667 14.5833C8.16667 15.5833 9.75001 15.5833 10.6667 14.5833L15.6667 9.58333C17.8333 7.5 17.8333 4.25 15.8333 2.16667ZM10.6667 8.83333H9.83334V9.66667C9.83334 10.1667 9.50001 10.5 9.00001 10.5C8.50001 10.5 8.16668 10.1667 8.16668 9.66667V8.83333H7.33334C6.83334 8.83333 6.50001 8.5 6.50001 8C6.50001 7.5 6.83334 7.16667 7.33334 7.16667H8.16668V6.33333C8.16668 5.83333 8.50001 5.5 9.00001 5.5C9.50001 5.5 9.83334 5.83333 9.83334 6.33333V7.16667H10.6667C11.1667 7.16667 11.5 7.5 11.5 8C11.5 8.5 11.1667 8.83333 10.6667 8.83333Z" fill="#1E1E1E"/>
</svg>
