<svg width="16" height="16" viewBox="0 0 16 16" fill="none" xmlns="http://www.w3.org/2000/svg">
<path d="M14.25 1.75C12.5833 0.0833333 9.91667 0.0833333 8.25 1.75L5.66667 4.33333C5.41667 4.33333 5.16667 4.33333 5 4.58333C4.83333 4.83333 4.75 5 4.75 5.25L4.41667 5.58333L1.75 8.25C0.0833333 9.91667 0.0833333 12.5833 1.75 14.25C3.41667 15.9167 6.08333 15.9167 7.75 14.25L10.4167 11.5833L14.25 7.75C15.9167 6.08333 15.9167 3.41667 14.25 1.75ZM6.58333 13.0833C5.58333 14.0833 3.91667 14.0833 2.91667 13.0833C1.91667 12.0833 1.91667 10.4167 2.91667 9.41667L5.58333 6.75L9.25 10.4167L6.58333 13.0833Z" fill="#1E1E1E"/>
</svg>
