<svg width="16" height="18" viewBox="0 0 16 18" fill="none" xmlns="http://www.w3.org/2000/svg">
<path d="M13.8333 0.666672H2.16667C1.25 0.666672 0.5 1.41667 0.5 2.33334V4.00001C0.5 4.91667 1.25 5.66667 2.16667 5.66667V14.8333C2.16667 16.25 3.25 17.3333 4.66667 17.3333H11.3333C12.75 17.3333 13.8333 16.25 13.8333 14.8333V5.66667C14.75 5.66667 15.5 4.91667 15.5 4.00001V2.33334C15.5 1.41667 14.75 0.666672 13.8333 0.666672ZM12.1667 13.1667H7.16667C6.66667 13.1667 6.33333 12.8333 6.33333 12.3333V9C6.33333 8.5 6.66667 8.16667 7.16667 8.16667H12.1667V13.1667ZM13.8333 4.00001H2.16667V2.33334H13.8333V4.00001Z" fill="black"/>
</svg>
