<svg width="20" height="20" viewBox="0 0 20 20" fill="none" xmlns="http://www.w3.org/2000/svg">
<path fill-rule="evenodd" clip-rule="evenodd" d="M5 3C5 1.34315 6.34315 0 8 0H17C18.6569 0 20 1.34315 20 3V12C20 13.6569 18.6569 15 17 15H15V17C15 18.6569 13.6569 20 12 20H3C1.34315 20 0 18.6569 0 17V8C0 6.34315 1.34315 5 3 5H5V3ZM7 5H12C13.6569 5 15 6.34315 15 8V13H17C17.5523 13 18 12.5523 18 12V3C18 2.44772 17.5523 2 17 2H8C7.44772 2 7 2.44772 7 3V5ZM3 7C2.44772 7 2 7.44772 2 8V17C2 17.5523 2.44772 18 3 18H12C12.5523 18 13 17.5523 13 17V8C13 7.44772 12.5523 7 12 7H3Z" fill="#484848"/>
</svg>
