<svg width="19" height="20" viewBox="0 0 19 20" fill="none" xmlns="http://www.w3.org/2000/svg">
<path fill-rule="evenodd" clip-rule="evenodd" d="M9.87264 19.4961C9.67244 19.8466 9.28104 20.0423 8.88044 19.9922L8.42664 19.9355C5.95952 19.6271 4.36849 17.1665 5.09969 14.7901L5.65048 13H4.9322C2.2947 13 0.37917 10.4921 1.07314 7.94753L2.43678 2.94753C2.91139 1.20728 4.49203 0 6.29583 0H16.0044C17.6613 0 19.0044 1.34315 19.0044 3V10C19.0044 11.6569 17.6613 13 16.0044 13H14.0044C13.7449 13 13.5053 13.1391 13.3765 13.3644L9.87264 19.4961ZM12.0044 2H6.29583C5.39393 2 4.60361 2.60364 4.36631 3.47376L3.00267 8.4738C2.65568 9.746 3.61345 11 4.9322 11H7.00445C7.32179 11 7.6203 11.1506 7.80884 11.4059C7.99737 11.6612 8.05354 11.9908 7.96022 12.2941L7.01125 15.3782C6.66604 16.5002 7.35602 17.6596 8.47254 17.9153L11.64 12.3721C11.9522 11.8258 12.4375 11.4141 13.0044 11.1902V3C13.0044 2.44772 12.5567 2 12.0044 2ZM15.0044 11V3C15.0044 2.64937 14.9443 2.31278 14.8337 2H16.0044C16.5567 2 17.0044 2.44772 17.0044 3V10C17.0044 10.5523 16.5567 11 16.0044 11H15.0044Z" fill="#484848"/>
</svg>
