<svg width="16" height="16" viewBox="0 0 16 16" fill="none" xmlns="http://www.w3.org/2000/svg">
<path d="M13.7139 4.95918C14.1832 5.46814 13.7171 6.16671 13.0248 6.16671H2.33325C1.78097 6.16671 1.33325 5.71899 1.33325 5.16671V4.28004C1.33325 2.65337 2.65325 1.33337 4.27992 1.33337H5.82659C6.91325 1.33337 7.25325 1.68671 7.68659 2.26671L8.61992 3.50671C8.82659 3.78004 8.85325 3.81337 9.23992 3.81337H11.0999C12.1329 3.81337 13.064 4.25433 13.7139 4.95918Z" fill="white"/>
<path d="M14.6566 8.16301C14.6548 7.61204 14.2076 7.16639 13.6566 7.1664L2.33323 7.1666C1.78096 7.16661 1.33325 7.61432 1.33325 8.1666V11.1C1.33325 13.0666 2.93325 14.6666 4.89992 14.6666H11.0999C13.0666 14.6666 14.6666 13.0666 14.6666 11.1L14.6566 8.16301ZM9.66658 11.1666H8.53992V12.3333C8.53992 12.6066 8.31325 12.8333 8.03992 12.8333C7.75992 12.8333 7.53992 12.6066 7.53992 12.3333V11.1666H6.33325C6.05992 11.1666 5.83325 10.94 5.83325 10.6666C5.83325 10.3933 6.05992 10.1666 6.33325 10.1666H7.53992V8.99995C7.53992 8.72662 7.75992 8.49995 8.03992 8.49995C8.31325 8.49995 8.53992 8.72662 8.53992 8.99995V10.1666H9.66658C9.93992 10.1666 10.1666 10.3933 10.1666 10.6666C10.1666 10.94 9.93992 11.1666 9.66658 11.1666Z" fill="white"/>
</svg>
