<svg width="20" height="20" viewBox="0 0 20 20" fill="none" xmlns="http://www.w3.org/2000/svg">
<path d="M14.6167 7.34154C15.979 7.34154 17.0834 6.23717 17.0834 4.87487C17.0834 3.51257 15.979 2.4082 14.6167 2.4082C13.2544 2.4082 12.15 3.51257 12.15 4.87487C12.15 6.23717 13.2544 7.34154 14.6167 7.34154Z" fill="#1E1E1E"/>
<path d="M5.38329 7.34154C6.74559 7.34154 7.84996 6.23717 7.84996 4.87487C7.84996 3.51257 6.74559 2.4082 5.38329 2.4082C4.02099 2.4082 2.91663 3.51257 2.91663 4.87487C2.91663 6.23717 4.02099 7.34154 5.38329 7.34154Z" fill="#1E1E1E"/>
<path d="M14.6167 17.5917C15.979 17.5917 17.0834 16.4873 17.0834 15.125C17.0834 13.7627 15.979 12.6583 14.6167 12.6583C13.2544 12.6583 12.15 13.7627 12.15 15.125C12.15 16.4873 13.2544 17.5917 14.6167 17.5917Z" fill="#1E1E1E"/>
<path d="M5.38329 17.5917C6.74559 17.5917 7.84996 16.4873 7.84996 15.125C7.84996 13.7627 6.74559 12.6583 5.38329 12.6583C4.02099 12.6583 2.91663 13.7627 2.91663 15.125C2.91663 16.4873 4.02099 17.5917 5.38329 17.5917Z" fill="#1E1E1E"/>
</svg>
