<svg width="19" height="20" viewBox="0 0 19 20" fill="none" xmlns="http://www.w3.org/2000/svg">
<path fill-rule="evenodd" clip-rule="evenodd" d="M9.1318 0.503889C9.3321 0.153379 9.7235 -0.0423206 10.124 0.00774943L10.5778 0.0644694C13.0449 0.372859 14.636 2.83353 13.9048 5.20993L13.354 6.99999H14.0722C16.7097 6.99999 18.6253 9.5079 17.9313 12.0525L16.5677 17.0525C16.0931 18.7927 14.5124 20 12.7086 20H3C1.34315 20 0 18.6568 0 17V10C0 8.3431 1.34315 6.99999 3 6.99999H5C5.25952 6.99999 5.49914 6.86094 5.6279 6.63561L9.1318 0.503889ZM7 18H12.7086C13.6105 18 14.4008 17.3964 14.6381 16.5262L16.0018 11.5262C16.3488 10.2539 15.391 9 14.0722 9H12C11.6827 9 11.3841 8.8494 11.1956 8.5941C11.0071 8.3388 10.9509 8.0092 11.0442 7.70591L11.9932 4.62175C12.3384 3.49984 11.6484 2.34036 10.5319 2.08468L7.3644 7.62789C7.0522 8.1742 6.56691 8.5859 6 8.8098V17C6 17.5523 6.44772 18 7 18ZM4 9V17C4 17.3506 4.06015 17.6872 4.17071 18H3C2.44772 18 2 17.5523 2 17V10C2 9.4477 2.44772 9 3 9H4Z" fill="#484848"/>
</svg>
