<svg width="18" height="18" viewBox="0 0 18 18" fill="none" xmlns="http://www.w3.org/2000/svg">
<path d="M14.3033 11.9468L13.125 10.7668L14.3033 9.58844C15.079 8.80587 15.5132 7.74788 15.5108 6.64598C15.5084 5.54407 15.0696 4.48799 14.2904 3.70882C13.5113 2.92965 12.4552 2.49086 11.3533 2.48844C10.2514 2.48603 9.19337 2.9202 8.4108 3.69595L7.23164 4.87511L6.0533 3.69678L7.23164 2.51845C8.32565 1.42443 9.80946 0.809814 11.3566 0.809814C12.9038 0.809814 14.3876 1.42443 15.4816 2.51845C16.5757 3.61246 17.1903 5.09627 17.1903 6.64345C17.1903 8.19062 16.5757 9.67443 15.4816 10.7684L14.3033 11.9468ZM11.9458 14.3034L10.7675 15.4818C9.67345 16.5758 8.18964 17.1904 6.64247 17.1904C5.09529 17.1904 3.61149 16.5758 2.51747 15.4818C1.42345 14.3878 0.808838 12.904 0.808838 11.3568C0.808838 9.8096 1.42345 8.3258 2.51747 7.23178L3.69664 6.05345L4.87497 7.23345L3.69664 8.41178C2.93153 9.19642 2.50636 10.2509 2.51322 11.3468C2.52009 12.4427 2.95844 13.4918 3.73332 14.2668C4.5082 15.0418 5.55721 15.4803 6.65311 15.4873C7.74901 15.4943 8.80356 15.0693 9.5883 14.3043L10.7675 13.1259L11.9458 14.3034ZM11.3566 5.46428L12.5358 6.64345L6.64247 12.5351L5.46414 11.3568L11.3566 5.46428Z" fill="#5664D2"/>
</svg>
