<svg width="20" height="20" viewBox="0 0 20 20" fill="none" xmlns="http://www.w3.org/2000/svg">
<circle cx="10" cy="10" r="10" fill="#D1674F"/>
<path d="M13.3883 7.49581C13.4481 7.43818 13.4957 7.36924 13.5285 7.293C13.5613 7.21677 13.5786 7.13476 13.5793 7.05178C13.5801 6.96879 13.5643 6.88648 13.5329 6.80966C13.5015 6.73283 13.4552 6.66303 13.3965 6.60432C13.3378 6.54561 13.2681 6.49917 13.1913 6.46771C13.1145 6.43624 13.0322 6.42039 12.9492 6.42107C12.8662 6.42176 12.7842 6.43896 12.7079 6.47168C12.6317 6.5044 12.5627 6.55198 12.505 6.61164L10 9.11581L7.49583 6.61164C7.43861 6.55024 7.36961 6.50099 7.29295 6.46683C7.21628 6.43267 7.13352 6.4143 7.0496 6.41282C6.96568 6.41134 6.88232 6.42677 6.8045 6.45821C6.72668 6.48964 6.65598 6.53643 6.59663 6.59578C6.53728 6.65513 6.4905 6.72582 6.45906 6.80365C6.42763 6.88147 6.41219 6.96483 6.41367 7.04875C6.41515 7.13266 6.43352 7.21543 6.46768 7.29209C6.50184 7.36876 6.55109 7.43776 6.6125 7.49498L9.115 9.99998L6.61083 12.5041C6.50043 12.6226 6.44033 12.7793 6.44319 12.9412C6.44604 13.1032 6.51164 13.2577 6.62615 13.3722C6.74066 13.4867 6.89514 13.5523 7.05706 13.5551C7.21898 13.558 7.37569 13.4979 7.49416 13.3875L10 10.8833L12.5042 13.3883C12.6226 13.4987 12.7793 13.5588 12.9413 13.556C13.1032 13.5531 13.2577 13.4875 13.3722 13.373C13.4867 13.2585 13.5523 13.104 13.5551 12.9421C13.558 12.7802 13.4979 12.6235 13.3875 12.505L10.885 9.99998L13.3883 7.49581Z" fill="white"/>
</svg>
