<svg width="18" height="18" viewBox="0 0 18 18" fill="none" xmlns="http://www.w3.org/2000/svg">
<path d="M0.0695578 7.8763C0.623298 3.43564 4.40966 0 8.99999 0C11.2824 0 13.4028 0.85067 15.0118 2.25439V1C15.0118 0.44772 15.4595 0 16.0118 0C16.5641 0 17.0118 0.44772 17.0118 1V5C17.0118 5.55228 16.5641 6 16.0118 6H12C11.4477 6 11 5.55228 11 5C11 4.44772 11.4477 4 12 4H13.9571C12.6757 2.76379 10.9101 2 8.99999 2C5.43107 2 2.48465 4.67174 2.05419 8.1237C1.98585 8.6718 1.48618 9.0607 0.938138 8.9923C0.390098 8.924 0.00121778 8.4243 0.0695578 7.8763ZM17.0618 9.0077C17.6099 9.076 17.9988 9.5757 17.9304 10.1237C17.3767 14.5644 13.5903 18 8.99999 18C6.72321 18 4.60761 17.1535 2.99998 15.7559V17C2.99998 17.5523 2.55227 18 1.99998 18C1.4477 18 0.999978 17.5523 0.999978 17V13C0.999978 12.4477 1.4477 12 1.99998 12H5.99998C6.55227 12 6.99998 12.4477 6.99998 13C6.99998 13.5523 6.55227 14 5.99998 14H4.04284C5.32432 15.2362 7.08989 16 8.99999 16C12.5689 16 15.5153 13.3283 15.9458 9.8763C16.0141 9.3282 16.5138 8.9393 17.0618 9.0077Z" fill="#484848"/>
</svg>
