<svg width="15" height="16" viewBox="0 0 15 16" fill="none" xmlns="http://www.w3.org/2000/svg">
<g clip-path="url(#clip0_0_1646)">
<path d="M14.5 15L10.5 11M6.5 13C5.71207 13 4.93185 12.8448 4.2039 12.5433C3.47595 12.2417 2.81451 11.7998 2.25736 11.2426C1.70021 10.6855 1.25825 10.0241 0.956723 9.2961C0.655195 8.56815 0.5 7.78793 0.5 7C0.5 6.21207 0.655195 5.43185 0.956723 4.7039C1.25825 3.97595 1.70021 3.31451 2.25736 2.75736C2.81451 2.20021 3.47595 1.75825 4.2039 1.45672C4.93185 1.15519 5.71207 1 6.5 1C8.0913 1 9.61742 1.63214 10.7426 2.75736C11.8679 3.88258 12.5 5.4087 12.5 7C12.5 8.5913 11.8679 10.1174 10.7426 11.2426C9.61742 12.3679 8.0913 13 6.5 13Z" stroke="black"/>
</g>
<defs>
<clipPath id="clip0_0_1646">
<rect width="15" height="15" fill="white" transform="translate(0 0.5)"/>
</clipPath>
</defs>
</svg>
