<svg width="39" height="40" viewBox="0 0 39 40" fill="none" xmlns="http://www.w3.org/2000/svg">
<path fill-rule="evenodd" clip-rule="evenodd" d="M34.7531 5.37184C37.0237 2.53733 38.8816 0.16679 38.8816 0.103848C38.8816 0.0411191 36.8828 -0.00544085 34.4395 0.000513114L29.9974 0.0113632L23.5171 8.09109C19.953 12.5349 16.8957 16.3014 16.7233 16.4609C16.4505 16.7135 15.9206 16.0751 12.6533 11.5601L8.89658 6.36891H4.85414C1.74027 6.36891 0.847455 6.42825 0.968071 6.62664C1.0542 6.76847 3.59969 10.3009 6.62451 14.4763C9.64955 18.6519 12.1244 22.2596 12.1244 22.4937C12.1244 23.2654 16.8109 26.4954 17.6077 26.2728C18.0478 26.1497 20.6424 22.9869 34.7531 5.37184ZM6.48027 15.7536L3.32563 11.1676C1.59059 8.64524 0.132531 6.58155 0.0854966 6.58155C0.0384623 6.58155 0 13.9347 0 22.922C0 38.4823 0.0181885 39.2792 0.382338 39.6144C0.929608 40.1181 5.65957 40.1328 6.15187 39.6322C6.44243 39.3364 6.48027 37.9443 6.48027 27.5259V15.7536ZM35.537 39.541C35.9478 39.1232 35.9551 38.8323 35.9551 22.8486C35.9551 13.9017 35.9243 6.58155 35.8869 6.58155C35.7469 6.58155 34.8637 7.64944 31.6906 11.6562L28.4296 15.774V27.5361C28.4296 37.9451 28.4674 39.3364 28.758 39.6322C29.0264 39.905 29.6395 39.9663 32.1026 39.9663C34.8402 39.9663 35.1576 39.9269 35.537 39.541Z" fill="white"/>
</svg>
