<svg width="24" height="24" viewBox="0 0 24 24" fill="none" xmlns="http://www.w3.org/2000/svg">
<g clip-path="url(#clip0_9_181)">
<path d="M5.64 25C5.18934 25 4.80356 24.8391 4.48267 24.5173C4.16178 24.1956 4.00089 23.8098 4 23.36C3.99911 22.9102 4.16 22.524 4.48267 22.2013C4.80534 21.8787 5.19156 21.7182 5.64134 21.72C6.09111 21.7218 6.47734 21.8822 6.8 22.2013C7.12267 22.5204 7.28356 22.9071 7.28267 23.3613C7.28178 23.8156 7.12089 24.2018 6.8 24.52C6.47911 24.8382 6.09245 24.9973 5.64 25ZM22.052 25.0013C22.052 22.4867 21.5791 20.1387 20.6333 17.9573C19.6876 15.776 18.3978 13.8693 16.764 12.2373C15.1302 10.6053 13.2236 9.31556 11.044 8.368C8.86089 7.42133 6.51289 6.948 4 6.948V5C6.77956 5 9.37778 5.52444 11.7947 6.57333C14.2116 7.62222 16.3253 9.05244 18.136 10.864C19.9467 12.6756 21.3764 14.7876 22.4253 17.2C23.4742 19.6124 23.9991 22.2124 24 25L22.052 25.0013ZM14.6667 25C14.6667 23.5111 14.3889 22.1276 13.8333 20.8493C13.2778 19.5711 12.5111 18.4436 11.5333 17.4667C10.5556 16.4898 9.428 15.7231 8.15067 15.1667C6.87334 14.6102 5.48978 14.3324 4 14.3333V12.3853C5.75378 12.3853 7.39289 12.7133 8.91734 13.3693C10.4418 14.0253 11.7796 14.9253 12.9307 16.0693C14.0738 17.2178 14.9738 18.5529 15.6307 20.0747C16.2876 21.5964 16.6151 23.2382 16.6133 25H14.6667Z" fill="black"/>
</g>
<defs>
<clipPath id="clip0_9_181">
<rect width="24" height="24" fill="white"/>
</clipPath>
</defs>
</svg>
