<svg width="24" height="24" viewBox="0 0 24 24" fill="none" xmlns="http://www.w3.org/2000/svg">
<path d="M20.71 8.12001V17.53C20.71 19.99 18.7 22 16.24 22H7.75998C5.29998 22 3.28998 19.99 3.28998 17.53V8.12001C3.28998 6.41001 4.24998 4.92001 5.65998 4.17001C6.14998 3.91001 6.75998 4.26001 6.75998 4.82001C6.75998 6.41001 8.05998 7.71001 9.64998 7.71001H14.35C15.94 7.71001 17.24 6.41001 17.24 4.82001C17.24 4.26001 17.84 3.91001 18.34 4.17001C19.75 4.92001 20.71 6.41001 20.71 8.12001Z" fill="url(#paint0_linear_4041_332)"/>
<path d="M14.35 2H9.65001C8.61001 2 7.76001 2.84 7.76001 3.88V4.82C7.76001 5.86 8.60001 6.7 9.64001 6.7H14.35C15.39 6.7 16.23 5.86 16.23 4.82V3.88C16.24 2.84 15.39 2 14.35 2Z" fill="url(#paint1_linear_4041_332)"/>
<defs>
<linearGradient id="paint0_linear_4041_332" x1="4.88856" y1="19.7048" x2="20.101" y2="19.4722" gradientUnits="userSpaceOnUse">
<stop offset="0.03" stop-color="#73A1E6"/>
<stop offset="0.34" stop-color="#8D81D8"/>
<stop offset="0.68" stop-color="#BA82CC"/>
<stop offset="0.935" stop-color="#EC5898"/>
</linearGradient>
<linearGradient id="paint1_linear_4041_332" x1="8.53728" y1="6.09794" x2="15.9298" y2="5.88835" gradientUnits="userSpaceOnUse">
<stop offset="0.03" stop-color="#73A1E6"/>
<stop offset="0.34" stop-color="#8D81D8"/>
<stop offset="0.68" stop-color="#BA82CC"/>
<stop offset="0.935" stop-color="#EC5898"/>
</linearGradient>
</defs>
</svg>
